<?xml version="1.0" standalone="no"?>
<!DOCTYPE svg PUBLIC "-//W3C//DTD SVG 20010904//EN"
 "http://www.w3.org/TR/2001/REC-SVG-20010904/DTD/svg10.dtd">
<svg version="1.0" xmlns="http://www.w3.org/2000/svg"
 width="1200.000000pt" height="1200.000000pt" viewBox="0 0 1200.000000 1200.000000"
 preserveAspectRatio="xMidYMid meet">

<g transform="translate(0.000000,1200.000000) scale(0.100000,-0.100000)"
fill="#000000" stroke="none">
<path d="M3319 9086 c-3 -3 -55 -13 -115 -21 -169 -22 -207 -31 -399 -96 -330
-110 -571 -246 -746 -419 -261 -259 -389 -601 -389 -1038 0 -179 14 -277 60
-414 96 -285 312 -516 638 -678 136 -67 176 -83 382 -150 96 -31 175 -61 175
-68 0 -6 -74 -48 -165 -94 -325 -165 -605 -363 -826 -583 -299 -298 -436 -544
-503 -901 -30 -164 -5 -393 65 -581 132 -355 440 -639 920 -850 342 -150 883
-263 1262 -263 320 0 786 85 1122 205 668 238 1073 622 1165 1106 42 226 20
488 -65 750 -142 436 -505 829 -979 1060 -129 64 -293 122 -374 133 -30 5 -47
12 -44 19 2 7 52 38 112 70 276 146 521 323 711 512 250 249 365 466 383 728
9 122 0 310 -20 407 -98 501 -436 824 -1103 1056 -116 41 -155 47 -401 69 -99
9 -218 21 -265 27 -93 11 -592 23 -601 14z m371 -996 c189 -39 304 -76 439
-140 254 -122 436 -291 502 -466 34 -88 31 -193 -5 -268 -205 -419 -1182 -366
-1674 90 -85 78 -166 195 -188 271 -23 79 -16 193 16 256 66 132 239 231 465
268 68 11 377 3 445 -11z m166 -2630 c370 -30 660 -149 876 -358 314 -304 342
-703 73 -1040 -374 -466 -1220 -609 -1820 -306 -229 116 -379 256 -469 439
-56 115 -71 182 -70 330 1 118 4 138 31 217 134 387 588 675 1131 717 59 4
110 9 113 10 3 0 64 -4 135 -9z"/>
<path d="M8119 9086 c-3 -4 -77 -15 -165 -26 -606 -76 -1102 -263 -1456 -549
-485 -391 -612 -992 -327 -1549 90 -177 173 -286 354 -468 177 -178 344 -309
562 -443 128 -78 400 -221 420 -221 6 0 13 -7 17 -15 4 -10 -6 -20 -31 -30
-19 -8 -39 -15 -43 -15 -13 0 -252 -81 -330 -112 -100 -39 -259 -123 -351
-184 -105 -70 -256 -222 -323 -325 -142 -220 -194 -447 -175 -769 31 -510 243
-880 646 -1128 239 -147 605 -277 878 -313 128 -16 604 -13 820 5 441 38 439
37 653 117 632 235 949 572 1027 1091 17 113 19 324 5 418 -63 399 -448 813
-1079 1161 -145 80 -139 76 -121 82 8 3 57 15 109 27 252 59 589 251 823 469
265 248 451 575 514 904 8 45 22 115 30 156 47 245 -26 570 -184 811 -283 434
-955 773 -1727 870 -49 6 -119 16 -155 22 -71 12 -382 23 -391 14z m306 -676
c157 -15 261 -36 399 -81 384 -126 666 -395 741 -707 25 -106 17 -280 -18
-380 -89 -256 -314 -470 -613 -586 -201 -78 -381 -110 -604 -110 -405 1 -774
136 -1024 374 -134 127 -207 248 -246 405 -19 76 -22 107 -17 205 3 78 12 136
26 180 93 283 355 511 721 628 120 38 184 51 335 67 158 17 171 17 300 5z
m325 -3345 c180 -27 313 -85 401 -176 78 -79 102 -144 97 -256 -4 -69 -10 -93
-41 -155 -123 -249 -454 -461 -852 -547 -294 -64 -556 -47 -762 49 -204 95
-291 270 -229 458 91 274 512 546 951 616 188 30 296 33 435 11z"/>
</g>
</svg>
